<svg xmlns="http://www.w3.org/2000/svg" xmlns:xlink="http://www.w3.org/1999/xlink" width="500" zoomAndPan="magnify" viewBox="0 0 375 374.999991" height="500" preserveAspectRatio="xMidYMid meet" version="1.0"><defs><g/><clipPath id="d579bcd835"><path d="M 78 183 L 129.941406 183 L 129.941406 192 L 78 192 Z M 78 183 " clip-rule="nonzero"/></clipPath><clipPath id="d5d67bf68e"><path d="M 88 163 L 129.941406 163 L 129.941406 172 L 88 172 Z M 88 163 " clip-rule="nonzero"/></clipPath><clipPath id="b38df3ade4"><path d="M 109 173 L 129.941406 173 L 129.941406 182 L 109 182 Z M 109 173 " clip-rule="nonzero"/></clipPath><clipPath id="070f4997ae"><path d="M 65.441406 183 L 75 183 L 75 192 L 65.441406 192 Z M 65.441406 183 " clip-rule="nonzero"/></clipPath><clipPath id="cfb987ddeb"><path d="M 90 193 L 129.941406 193 L 129.941406 202 L 90 202 Z M 90 193 " clip-rule="nonzero"/></clipPath><clipPath id="ead9141f5f"><path d="M 94 202 L 129.941406 202 L 129.941406 211 L 94 211 Z M 94 202 " clip-rule="nonzero"/></clipPath></defs><g clip-path="url(#d579bcd835)"><path fill="#237b31" d="M 152.207031 183.402344 L 110.691406 183.402344 L 108.917969 186.46875 L 104.816406 186.46875 L 103.042969 183.402344 C 101.511719 183.402344 82.359375 183.402344 80.832031 183.402344 L 78.539062 187.375 L 80.832031 191.347656 C 82.359375 191.347656 101.511719 191.347656 103.042969 191.347656 L 104.816406 188.28125 L 108.917969 188.28125 L 110.691406 191.347656 L 152.207031 191.347656 C 152.664062 188.722656 152.664062 186.035156 152.207031 183.402344 Z M 152.207031 183.402344 " fill-opacity="1" fill-rule="nonzero"/></g><g clip-path="url(#d5d67bf68e)"><path fill="#237b31" d="M 95.210938 171.820312 L 96.984375 168.757812 L 101.085938 168.757812 L 102.859375 171.820312 L 146.628906 171.820312 C 138.402344 162.546875 129.175781 163.871094 118.050781 163.871094 L 102.859375 163.871094 L 101.085938 166.9375 L 96.984375 166.9375 L 95.210938 163.871094 L 90.625 163.871094 L 88.332031 167.84375 L 90.625 171.8125 L 95.210938 171.8125 Z M 95.210938 171.820312 " fill-opacity="1" fill-rule="nonzero"/></g><g clip-path="url(#b38df3ade4)"><path fill="#237b31" d="M 122.628906 176.707031 L 118.523438 176.707031 L 116.75 173.640625 L 112.164062 173.640625 L 109.871094 177.613281 L 112.164062 181.585938 L 116.75 181.585938 L 118.523438 178.519531 L 122.628906 178.519531 L 124.402344 181.585938 L 151.820312 181.585938 C 151.082031 178.683594 149.796875 175.996094 148.085938 173.632812 L 124.402344 173.632812 Z M 122.628906 176.707031 " fill-opacity="1" fill-rule="nonzero"/></g><g clip-path="url(#070f4997ae)"><path fill="#237b31" d="M 67.734375 183.402344 L 65.441406 187.375 L 67.734375 191.355469 L 72.328125 191.355469 L 74.621094 187.375 L 72.328125 183.402344 Z M 67.734375 183.402344 " fill-opacity="1" fill-rule="nonzero"/></g><path fill="#237b31" d="M 96.777344 177.613281 L 99.070312 181.585938 L 103.664062 181.585938 L 105.957031 177.613281 L 103.664062 173.640625 L 99.070312 173.640625 Z M 96.777344 177.613281 " fill-opacity="1" fill-rule="nonzero"/><path fill="#237b31" d="M 83.40625 202.929688 L 81.105469 206.90625 L 83.40625 210.878906 L 87.992188 210.878906 L 90.285156 206.90625 L 87.992188 202.929688 Z M 83.40625 202.929688 " fill-opacity="1" fill-rule="nonzero"/><g clip-path="url(#cfb987ddeb)"><path fill="#237b31" d="M 103.042969 196.230469 L 98.9375 196.230469 L 97.164062 193.167969 L 92.578125 193.167969 L 90.285156 197.136719 L 92.578125 201.109375 L 97.164062 201.109375 L 98.9375 198.042969 L 103.042969 198.042969 L 104.816406 201.109375 L 148.078125 201.109375 C 149.789062 198.746094 151.074219 196.058594 151.8125 193.160156 C 137.449219 193.160156 119.171875 193.160156 104.808594 193.160156 Z M 103.042969 196.230469 " fill-opacity="1" fill-rule="nonzero"/></g><g clip-path="url(#ead9141f5f)"><path fill="#237b31" d="M 114.796875 206 L 110.691406 206 L 108.917969 202.9375 C 104.78125 202.9375 100.636719 202.9375 96.496094 202.9375 L 94.203125 206.90625 L 96.496094 210.878906 C 100.636719 210.878906 104.773438 210.878906 108.917969 210.878906 L 110.691406 207.8125 L 114.796875 207.8125 L 116.570312 210.878906 C 128.316406 210.878906 138.191406 212.445312 146.628906 202.929688 L 116.570312 202.929688 Z M 114.796875 206 " fill-opacity="1" fill-rule="nonzero"/></g><g fill="#ffffff" fill-opacity="1"><g transform="translate(137.004033, 198.044737)"><g><path d="M 2.609375 0 L 2.609375 -20.015625 L 10.640625 -20.015625 C 12.710938 -20.015625 14.273438 -19.535156 15.328125 -18.578125 C 16.378906 -17.628906 16.90625 -16.316406 16.90625 -14.640625 C 16.90625 -13.421875 16.597656 -12.421875 15.984375 -11.640625 C 15.367188 -10.867188 14.453125 -10.28125 13.234375 -9.875 L 13.234375 -9.59375 C 13.859375 -9.3125 14.363281 -8.898438 14.75 -8.359375 C 15.144531 -7.828125 15.515625 -7.03125 15.859375 -5.96875 L 17.859375 0 L 13.796875 0 L 11.828125 -5.984375 C 11.628906 -6.585938 11.40625 -7.054688 11.15625 -7.390625 C 10.90625 -7.722656 10.582031 -7.960938 10.1875 -8.109375 C 9.800781 -8.265625 9.300781 -8.34375 8.6875 -8.34375 L 6.5625 -8.34375 L 6.5625 0 Z M 10.15625 -11.46875 C 12.070312 -11.46875 13.03125 -12.363281 13.03125 -14.15625 C 13.03125 -15.976562 12.070312 -16.890625 10.15625 -16.890625 L 6.5625 -16.890625 L 6.5625 -11.46875 Z M 10.15625 -11.46875 "/></g></g></g><g fill="#ffffff" fill-opacity="1"><g transform="translate(161.332906, 198.044737)"><g><path d="M 19.21875 0 L 15.046875 0 L 13.546875 -4.609375 L 5.875 -4.609375 L 4.375 0 L 0.296875 0 L 7.21875 -20.015625 L 12.296875 -20.015625 Z M 9.515625 -15.84375 L 6.9375 -7.9375 L 12.453125 -7.9375 L 9.859375 -15.84375 Z M 9.515625 -15.84375 "/></g></g></g><g fill="#ffffff" fill-opacity="1"><g transform="translate(186.455965, 198.044737)"><g><path d="M 6.4375 0 L 2.609375 0 L 2.609375 -20.015625 L 7.140625 -20.015625 L 15.171875 -7.125 L 15.53125 -7.171875 L 15.53125 -20.015625 L 19.34375 -20.015625 L 19.34375 0 L 15.28125 0 L 6.78125 -13.78125 L 6.4375 -13.71875 Z M 6.4375 0 "/></g></g></g><g fill="#ffffff" fill-opacity="1"><g transform="translate(214.016351, 198.044737)"><g><path d="M 2.609375 0 L 2.609375 -20.015625 L 6.5625 -20.015625 L 6.5625 -11.84375 L 7 -11.84375 L 13.6875 -20.015625 L 17.734375 -20.015625 L 17.734375 -19.671875 L 10.359375 -10.578125 L 18.5 -0.34375 L 18.5 0 L 14.03125 0 L 7 -8.640625 L 6.5625 -8.640625 L 6.5625 0 Z M 2.609375 0 "/></g></g></g><g fill="#ffffff" fill-opacity="1"><g transform="translate(238.126139, 198.044737)"><g><path d="M 6.5625 0 L 2.609375 0 L 2.609375 -20.015625 L 6.5625 -20.015625 Z M 6.5625 0 "/></g></g></g><g fill="#ffffff" fill-opacity="1"><g transform="translate(252.911092, 198.044737)"><g><path d="M 15.296875 -20.015625 L 15.296875 -16.703125 L 6.5625 -16.703125 L 6.5625 -11.40625 L 14.484375 -11.40625 L 14.484375 -8.140625 L 6.5625 -8.140625 L 6.5625 0 L 2.609375 0 L 2.609375 -20.015625 Z M 15.296875 -20.015625 "/></g></g></g><g fill="#ffffff" fill-opacity="1"><g transform="translate(274.706775, 198.044737)"><g><path d="M 10.96875 0 L 7.015625 0 L 7.015625 -7.859375 L 0.09375 -20.015625 L 4.34375 -20.015625 L 8.921875 -12.140625 L 9.25 -12.140625 L 13.734375 -20.015625 L 17.890625 -20.015625 L 10.96875 -7.859375 Z M 10.96875 0 "/></g></g></g><path stroke-linecap="round" transform="matrix(0, 0.75, -0.75, 0, 131.314947, 159.251942)" fill="none" stroke-linejoin="miter" d="M 1.497411 1.498055 L 73.830749 1.498055 " stroke="#ffffff" stroke-width="3" stroke-opacity="1" stroke-miterlimit="4"/></svg>